<svg xmlns="http://www.w3.org/2000/svg" width="600" height="200"><path d="M-6,273L-62,254L55,295Z" fill="#7f9f9b" stroke="#7f9f9b" stroke-width="1.51"/><path d="M55,295L-62,254L93,309Z" fill="#799795" stroke="#799795" stroke-width="1.51"/><path d="M127,-109L241,-82L375,-88Z" fill="#c2d1e6" stroke="#c2d1e6" stroke-width="1.51"/><path d="M375,-88L439,-70L526,-71Z" fill="#99b9cf" stroke="#99b9cf" stroke-width="1.51"/><path d="M369,288L214,307L547,298Z" fill="#28727e" stroke="#28727e" stroke-width="1.51"/><path d="M127,-109L375,-88L624,-94Z" fill="#a8c4de" stroke="#a8c4de" stroke-width="1.51"/><path d="M375,-88L526,-71L624,-94Z" fill="#91b6bf" stroke="#91b6bf" stroke-width="1.51"/><path d="M674,137L676,224L689,70Z" fill="#277381" stroke="#277381" stroke-width="1.51"/><path d="M689,70L676,224L703,35Z" fill="#367a83" stroke="#367a83" stroke-width="1.51"/><path d="M703,35L676,224L719,-38Z" fill="#4a7f85" stroke="#4a7f85" stroke-width="1.51"/><path d="M652,26L703,35L719,-38Z" fill="#6a8c8d" stroke="#6a8c8d" stroke-width="1.51"/><path d="M694,-67L652,26L719,-38Z" fill="#759390" stroke="#759390" stroke-width="1.51"/><path d="M655,70L674,137L689,70Z" fill="#408188" stroke="#408188" stroke-width="1.51"/><path d="M600,-8L652,26L694,-67Z" fill="#769a97" stroke="#769a97" stroke-width="1.51"/><path d="M652,26L689,70L703,35Z" fill="#5d888c" stroke="#5d888c" stroke-width="1.51"/><path d="M674,137L617,150L676,224Z" fill="#1b747b" stroke="#1b747b" stroke-width="1.51"/><path d="M639,258L661,278L676,224Z" fill="#026553" stroke="#026553" stroke-width="1.51"/><path d="M652,26L655,70L689,70Z" fill="#57898d" stroke="#57898d" stroke-width="1.51"/><path d="M624,-94L600,-8L694,-67Z" fill="#81a19d" stroke="#81a19d" stroke-width="1.51"/><path d="M617,150L614,223L676,224Z" fill="#0a7370" stroke="#0a7370" stroke-width="1.51"/><path d="M655,70L617,150L674,137Z" fill="#348089" stroke="#348089" stroke-width="1.51"/><path d="M614,223L639,258L676,224Z" fill="#036b5e" stroke="#036b5e" stroke-width="1.51"/><path d="M574,-44L600,-8L624,-94Z" fill="#83a6a4" stroke="#83a6a4" stroke-width="1.51"/><path d="M579,92L617,150L655,70Z" fill="#3c8991" stroke="#3c8991" stroke-width="1.51"/><path d="M639,258L547,298L661,278Z" fill="#016452" stroke="#016452" stroke-width="1.51"/><path d="M652,26L590,19L655,70Z" fill="#639395" stroke="#639395" stroke-width="1.51"/><path d="M590,19L579,92L655,70Z" fill="#599298" stroke="#599298" stroke-width="1.51"/><path d="M600,-8L590,19L652,26Z" fill="#6f9b9b" stroke="#6f9b9b" stroke-width="1.51"/><path d="M539,282L547,298L614,223Z" fill="#036d60" stroke="#036d60" stroke-width="1.51"/><path d="M614,223L547,298L639,258Z" fill="#026c5c" stroke="#026c5c" stroke-width="1.51"/><path d="M554,176L614,223L617,150Z" fill="#167b81" stroke="#167b81" stroke-width="1.51"/><path d="M526,-71L543,-63L624,-94Z" fill="#8bafb0" stroke="#8bafb0" stroke-width="1.51"/><path d="M543,-63L574,-44L624,-94Z" fill="#88acab" stroke="#88acab" stroke-width="1.51"/><path d="M546,213L539,282L614,223Z" fill="#05746c" stroke="#05746c" stroke-width="1.51"/><path d="M554,176L546,213L614,223Z" fill="#057b7c" stroke="#057b7c" stroke-width="1.51"/><path d="M579,92L554,176L617,150Z" fill="#2c8495" stroke="#2c8495" stroke-width="1.51"/><path d="M425,268L369,288L547,298Z" fill="#197177" stroke="#197177" stroke-width="1.51"/><path d="M519,128L554,176L579,92Z" fill="#318a9e" stroke="#318a9e" stroke-width="1.51"/><path d="M510,28L579,92L590,19Z" fill="#649aa5" stroke="#649aa5" stroke-width="1.51"/><path d="M574,-44L590,19L600,-8Z" fill="#7aa2a4" stroke="#7aa2a4" stroke-width="1.51"/><path d="M574,-44L510,28L590,19Z" fill="#78a3aa" stroke="#78a3aa" stroke-width="1.51"/><path d="M543,-63L510,28L574,-44Z" fill="#81a9b1" stroke="#81a9b1" stroke-width="1.51"/><path d="M510,28L519,128L579,92Z" fill="#4e96a8" stroke="#4e96a8" stroke-width="1.51"/><path d="M486,-38L510,28L543,-63Z" fill="#83abb8" stroke="#83abb8" stroke-width="1.51"/><path d="M526,-71L486,-38L543,-63Z" fill="#8cb0ba" stroke="#8cb0ba" stroke-width="1.51"/><path d="M485,201L539,282L546,213Z" fill="#057a7a" stroke="#057a7a" stroke-width="1.51"/><path d="M519,128L496,157L554,176Z" fill="#2387a1" stroke="#2387a1" stroke-width="1.51"/><path d="M485,201L546,213L554,176Z" fill="#0b8089" stroke="#0b8089" stroke-width="1.51"/><path d="M496,157L485,201L554,176Z" fill="#178597" stroke="#178597" stroke-width="1.51"/><path d="M485,201L454,224L539,282Z" fill="#0d7c80" stroke="#0d7c80" stroke-width="1.51"/><path d="M539,282L425,268L547,298Z" fill="#076d6a" stroke="#076d6a" stroke-width="1.51"/><path d="M486,-38L471,-19L510,28Z" fill="#82abbd" stroke="#82abbd" stroke-width="1.51"/><path d="M510,28L425,78L519,128Z" fill="#569bb5" stroke="#569bb5" stroke-width="1.51"/><path d="M454,224L425,268L539,282Z" fill="#14797a" stroke="#14797a" stroke-width="1.51"/><path d="M457,25L425,78L510,28Z" fill="#6fa3be" stroke="#6fa3be" stroke-width="1.51"/><path d="M439,-70L486,-38L526,-71Z" fill="#91b4c3" stroke="#91b4c3" stroke-width="1.51"/><path d="M470,160L496,157L519,128Z" fill="#2a8ba9" stroke="#2a8ba9" stroke-width="1.51"/><path d="M425,78L470,160L519,128Z" fill="#3d93b3" stroke="#3d93b3" stroke-width="1.51"/><path d="M-119,-78L-6,-79L127,-109Z" fill="#efe6f3" stroke="#efe6f3" stroke-width="1.51"/><path d="M471,-19L457,25L510,28Z" fill="#7ba8be" stroke="#7ba8be" stroke-width="1.51"/><path d="M470,160L485,201L496,157Z" fill="#2088a1" stroke="#2088a1" stroke-width="1.51"/><path d="M470,160L454,224L485,201Z" fill="#198699" stroke="#198699" stroke-width="1.51"/><path d="M439,-70L471,-19L486,-38Z" fill="#8fb2c6" stroke="#8fb2c6" stroke-width="1.51"/><path d="M425,78L387,178L470,160Z" fill="#3b92bc" stroke="#3b92bc" stroke-width="1.51"/><path d="M393,202L454,224L470,160Z" fill="#2188a1" stroke="#2188a1" stroke-width="1.51"/><path d="M387,178L393,202L470,160Z" fill="#2b8bae" stroke="#2b8bae" stroke-width="1.51"/><path d="M401,-35L457,25L471,-19Z" fill="#88afc9" stroke="#88afc9" stroke-width="1.51"/><path d="M439,-70L401,-35L471,-19Z" fill="#92b3ce" stroke="#92b3ce" stroke-width="1.51"/><path d="M385,84L387,178L425,78Z" fill="#4c9ac6" stroke="#4c9ac6" stroke-width="1.51"/><path d="M387,31L425,78L457,25Z" fill="#74a5c9" stroke="#74a5c9" stroke-width="1.51"/><path d="M401,-35L387,31L457,25Z" fill="#87adcf" stroke="#87adcf" stroke-width="1.51"/><path d="M393,202L425,268L454,224Z" fill="#218293" stroke="#218293" stroke-width="1.51"/><path d="M375,-88L401,-35L439,-70Z" fill="#9dbad9" stroke="#9dbad9" stroke-width="1.51"/><path d="M385,84L334,130L387,178Z" fill="#4b9ac5" stroke="#4b9ac5" stroke-width="1.51"/><path d="M393,202L353,260L425,268Z" fill="#298393" stroke="#298393" stroke-width="1.51"/><path d="M353,260L369,288L425,268Z" fill="#2a7b87" stroke="#2a7b87" stroke-width="1.51"/><path d="M387,31L385,84L425,78Z" fill="#6ca4cc" stroke="#6ca4cc" stroke-width="1.51"/><path d="M241,-82L313,-62L375,-88Z" fill="#afc8e1" stroke="#afc8e1" stroke-width="1.51"/><path d="M346,40L385,84L387,31Z" fill="#78a9d0" stroke="#78a9d0" stroke-width="1.51"/><path d="M345,238L353,260L393,202Z" fill="#31889a" stroke="#31889a" stroke-width="1.51"/><path d="M375,-88L313,-62L401,-35Z" fill="#a4bedc" stroke="#a4bedc" stroke-width="1.51"/><path d="M313,-62L333,-3L401,-35Z" fill="#9ebbda" stroke="#9ebbda" stroke-width="1.51"/><path d="M333,-3L387,31L401,-35Z" fill="#91b3d5" stroke="#91b3d5" stroke-width="1.51"/><path d="M338,85L334,130L385,84Z" fill="#5ca2cc" stroke="#5ca2cc" stroke-width="1.51"/><path d="M333,-3L346,40L387,31Z" fill="#8ab1d4" stroke="#8ab1d4" stroke-width="1.51"/><path d="M387,178L345,238L393,202Z" fill="#2d8ca6" stroke="#2d8ca6" stroke-width="1.51"/><path d="M346,40L338,85L385,84Z" fill="#70a8cf" stroke="#70a8cf" stroke-width="1.51"/><path d="M334,130L345,238L387,178Z" fill="#3b92b4" stroke="#3b92b4" stroke-width="1.51"/><path d="M249,265L214,307L369,288Z" fill="#438188" stroke="#438188" stroke-width="1.51"/><path d="M334,130L264,212L345,238Z" fill="#4195b1" stroke="#4195b1" stroke-width="1.51"/><path d="M258,177L264,212L334,130Z" fill="#519bbe" stroke="#519bbe" stroke-width="1.51"/><path d="M353,260L249,265L369,288Z" fill="#37828c" stroke="#37828c" stroke-width="1.51"/><path d="M345,238L249,265L353,260Z" fill="#3b8993" stroke="#3b8993" stroke-width="1.51"/><path d="M264,212L249,265L345,238Z" fill="#44909d" stroke="#44909d" stroke-width="1.51"/><path d="M272,16L338,85L346,40Z" fill="#85b0d4" stroke="#85b0d4" stroke-width="1.51"/><path d="M333,-3L272,16L346,40Z" fill="#92b6d7" stroke="#92b6d7" stroke-width="1.51"/><path d="M273,111L258,177L334,130Z" fill="#5ba0ca" stroke="#5ba0ca" stroke-width="1.51"/><path d="M272,16L273,111L338,85Z" fill="#7cafd3" stroke="#7cafd3" stroke-width="1.51"/><path d="M273,111L334,130L338,85Z" fill="#61a5cd" stroke="#61a5cd" stroke-width="1.51"/><path d="M313,-62L272,16L333,-3Z" fill="#a1bedb" stroke="#a1bedb" stroke-width="1.51"/><path d="M248,-40L272,16L313,-62Z" fill="#acc3df" stroke="#acc3df" stroke-width="1.51"/><path d="M122,300L93,309L214,307Z" fill="#638688" stroke="#638688" stroke-width="1.51"/><path d="M241,-82L248,-40L313,-62Z" fill="#b7c9e2" stroke="#b7c9e2" stroke-width="1.51"/><path d="M235,218L249,265L264,212Z" fill="#5294a2" stroke="#5294a2" stroke-width="1.51"/><path d="M248,-40L187,48L272,16Z" fill="#abc0dd" stroke="#abc0dd" stroke-width="1.51"/><path d="M187,48L223,101L272,16Z" fill="#99b9d8" stroke="#99b9d8" stroke-width="1.51"/><path d="M219,168L258,177L273,111Z" fill="#64a1ca" stroke="#64a1ca" stroke-width="1.51"/><path d="M223,101L219,168L273,111Z" fill="#71a8cf" stroke="#71a8cf" stroke-width="1.51"/><path d="M272,16L223,101L273,111Z" fill="#85b1d4" stroke="#85b1d4" stroke-width="1.51"/><path d="M188,-45L187,48L248,-40Z" fill="#bac7e1" stroke="#bac7e1" stroke-width="1.51"/><path d="M258,177L235,218L264,212Z" fill="#549ab0" stroke="#549ab0" stroke-width="1.51"/><path d="M219,168L235,218L258,177Z" fill="#5e9db9" stroke="#5e9db9" stroke-width="1.51"/><path d="M127,-109L183,-55L241,-82Z" fill="#d0d5e9" stroke="#d0d5e9" stroke-width="1.51"/><path d="M241,-82L188,-45L248,-40Z" fill="#c1cce3" stroke="#c1cce3" stroke-width="1.51"/><path d="M235,218L214,307L249,265Z" fill="#548f94" stroke="#548f94" stroke-width="1.51"/><path d="M128,230L214,307L235,218Z" fill="#62969a" stroke="#62969a" stroke-width="1.51"/><path d="M183,-55L188,-45L241,-82Z" fill="#c8cfe6" stroke="#c8cfe6" stroke-width="1.51"/><path d="M179,169L219,168L223,101Z" fill="#74a7ce" stroke="#74a7ce" stroke-width="1.51"/><path d="M179,169L128,230L235,218Z" fill="#6aa1b2" stroke="#6aa1b2" stroke-width="1.51"/><path d="M219,168L179,169L235,218Z" fill="#67a0bb" stroke="#67a0bb" stroke-width="1.51"/><path d="M147,27L187,48L188,-45Z" fill="#bac6e0" stroke="#bac6e0" stroke-width="1.51"/><path d="M128,230L122,300L214,307Z" fill="#659091" stroke="#659091" stroke-width="1.51"/><path d="M187,48L128,95L223,101Z" fill="#96b8d8" stroke="#96b8d8" stroke-width="1.51"/><path d="M128,95L179,169L223,101Z" fill="#85afd3" stroke="#85afd3" stroke-width="1.51"/><path d="M147,27L118,74L187,48Z" fill="#aec0de" stroke="#aec0de" stroke-width="1.51"/><path d="M118,74L128,95L187,48Z" fill="#a3bddb" stroke="#a3bddb" stroke-width="1.51"/><path d="M183,-55L128,-15L188,-45Z" fill="#cacfe5" stroke="#cacfe5" stroke-width="1.51"/><path d="M128,-15L147,27L188,-45Z" fill="#c5cce3" stroke="#c5cce3" stroke-width="1.51"/><path d="M127,-109L128,-15L183,-55Z" fill="#d4d4e8" stroke="#d4d4e8" stroke-width="1.51"/><path d="M128,95L67,138L179,169Z" fill="#8cb1d4" stroke="#8cb1d4" stroke-width="1.51"/><path d="M67,138L128,230L179,169Z" fill="#7ea9c3" stroke="#7ea9c3" stroke-width="1.51"/><path d="M67,138L91,242L128,230Z" fill="#7da8b7" stroke="#7da8b7" stroke-width="1.51"/><path d="M91,242L122,300L128,230Z" fill="#729c9c" stroke="#729c9c" stroke-width="1.51"/><path d="M127,-109L82,-57L128,-15Z" fill="#dad8ea" stroke="#dad8ea" stroke-width="1.51"/><path d="M128,-15L112,14L147,27Z" fill="#c3cbe3" stroke="#c3cbe3" stroke-width="1.51"/><path d="M112,14L118,74L147,27Z" fill="#b8c5e0" stroke="#b8c5e0" stroke-width="1.51"/><path d="M67,138L42,152L91,242Z" fill="#89afc7" stroke="#89afc7" stroke-width="1.51"/><path d="M91,242L93,309L122,300Z" fill="#6f9392" stroke="#6f9392" stroke-width="1.51"/><path d="M5,-69L82,-57L127,-109Z" fill="#e5dfee" stroke="#e5dfee" stroke-width="1.51"/><path d="M-6,-79L5,-69L127,-109Z" fill="#e9e3f0" stroke="#e9e3f0" stroke-width="1.51"/><path d="M118,74L67,138L128,95Z" fill="#9bbbda" stroke="#9bbbda" stroke-width="1.51"/><path d="M85,-14L112,14L128,-15Z" fill="#cdcfe5" stroke="#cdcfe5" stroke-width="1.51"/><path d="M82,-57L85,-14L128,-15Z" fill="#d5d4e8" stroke="#d5d4e8" stroke-width="1.51"/><path d="M112,14L56,0L118,74Z" fill="#c2cae2" stroke="#c2cae2" stroke-width="1.51"/><path d="M91,242L55,295L93,309Z" fill="#739594" stroke="#739594" stroke-width="1.51"/><path d="M16,96L67,138L118,74Z" fill="#a1bedb" stroke="#a1bedb" stroke-width="1.51"/><path d="M56,0L16,96L118,74Z" fill="#bac7e1" stroke="#bac7e1" stroke-width="1.51"/><path d="M42,152L40,241L91,242Z" fill="#81aab5" stroke="#81aab5" stroke-width="1.51"/><path d="M85,-14L56,0L112,14Z" fill="#cfd0e6" stroke="#cfd0e6" stroke-width="1.51"/><path d="M3,19L16,96L56,0Z" fill="#c7cde5" stroke="#c7cde5" stroke-width="1.51"/><path d="M40,241L55,295L91,242Z" fill="#79a09d" stroke="#79a09d" stroke-width="1.51"/><path d="M82,-57L56,0L85,-14Z" fill="#d7d5e8" stroke="#d7d5e8" stroke-width="1.51"/><path d="M5,-69L56,0L82,-57Z" fill="#e0daeb" stroke="#e0daeb" stroke-width="1.51"/><path d="M-7,206L40,241L42,152Z" fill="#88afbc" stroke="#88afbc" stroke-width="1.51"/><path d="M16,96L42,152L67,138Z" fill="#9cbad9" stroke="#9cbad9" stroke-width="1.51"/><path d="M40,241L-6,273L55,295Z" fill="#7c9e9b" stroke="#7c9e9b" stroke-width="1.51"/><path d="M5,-69L-17,1L56,0Z" fill="#dfdaeb" stroke="#dfdaeb" stroke-width="1.51"/><path d="M-17,1L3,19L56,0Z" fill="#d6d5e9" stroke="#d6d5e9" stroke-width="1.51"/><path d="M16,96L-3,143L42,152Z" fill="#9fbbda" stroke="#9fbbda" stroke-width="1.51"/><path d="M-3,143L-7,206L42,152Z" fill="#94b4cf" stroke="#94b4cf" stroke-width="1.51"/><path d="M-7,206L-6,273L40,241Z" fill="#84a8a9" stroke="#84a8a9" stroke-width="1.51"/><path d="M-66,49L-29,102L3,19Z" fill="#c6cfe5" stroke="#c6cfe5" stroke-width="1.51"/><path d="M-39,12L-66,49L3,19Z" fill="#d3d5e8" stroke="#d3d5e8" stroke-width="1.51"/><path d="M3,19L-29,102L16,96Z" fill="#bbcae2" stroke="#bbcae2" stroke-width="1.51"/><path d="M-29,102L-3,143L16,96Z" fill="#a8c1dd" stroke="#a8c1dd" stroke-width="1.51"/><path d="M-7,206L-62,254L-6,273Z" fill="#87aaa8" stroke="#87aaa8" stroke-width="1.51"/><path d="M-75,-41L-17,1L-6,-79Z" fill="#e9e1f0" stroke="#e9e1f0" stroke-width="1.51"/><path d="M-68,195L-7,206L-3,143Z" fill="#94b5c9" stroke="#94b5c9" stroke-width="1.51"/><path d="M-6,-79L-17,1L5,-69Z" fill="#e9e0ef" stroke="#e9e0ef" stroke-width="1.51"/><path d="M-17,1L-39,12L3,19Z" fill="#d8d7ea" stroke="#d8d7ea" stroke-width="1.51"/><path d="M-119,-78L-75,-41L-6,-79Z" fill="#f2e8f4" stroke="#f2e8f4" stroke-width="1.51"/><path d="M-66,105L-94,132L-3,143Z" fill="#a8c2de" stroke="#a8c2de" stroke-width="1.51"/><path d="M-94,132L-68,195L-3,143Z" fill="#9ebcd8" stroke="#9ebcd8" stroke-width="1.51"/><path d="M-29,102L-66,105L-3,143Z" fill="#a9c3de" stroke="#a9c3de" stroke-width="1.51"/><path d="M-68,195L-62,254L-7,206Z" fill="#8db1b6" stroke="#8db1b6" stroke-width="1.51"/><path d="M-75,-41L-39,12L-17,1Z" fill="#e2dded" stroke="#e2dded" stroke-width="1.51"/><path d="M-66,49L-66,105L-29,102Z" fill="#b9cce3" stroke="#b9cce3" stroke-width="1.51"/><path d="M-75,-41L-66,49L-39,12Z" fill="#dedcec" stroke="#dedcec" stroke-width="1.51"/><path d="M-75,-41L-119,-78L-66,49Z" fill="#e9e3f0" stroke="#e9e3f0" stroke-width="1.51"/><path d="M-94,132L-66,105L-66,49Z" fill="#b5cce3" stroke="#b5cce3" stroke-width="1.51"/><path d="M-68,195L-94,132L-62,254Z" fill="#95b8c4" stroke="#95b8c4" stroke-width="1.51"/><path d="M-119,-78L-94,132L-66,49Z" fill="#d6daeb" stroke="#d6daeb" stroke-width="1.51"/></svg>